<?xml version="1.0" encoding="UTF-8"?>
<svg width="14px" height="14px" viewBox="0 0 14 14" version="1.1" xmlns="http://www.w3.org/2000/svg" xmlns:xlink="http://www.w3.org/1999/xlink">
    <!-- Generator: Sketch 49.3 (51167) - http://www.bohemiancoding.com/sketch -->
    <title>Group 21@1.5x</title>
    <desc>Created with Sketch.</desc>
    <defs></defs>
    <g id="Page-1" stroke="none" stroke-width="1" fill="none" fill-rule="evenodd">
        <g id="HIO-首页-1366x768-2" transform="translate(-24.000000, -258.000000)" fill="#46A7FF">
            <g id="left" transform="translate(0.000000, 50.000000)">
                <g id="Group-2" transform="translate(24.000000, 206.000000)">
                    <g id="Group-21" transform="translate(0.000000, 2.000000)">
                        <path d="M14,8 L0,8 L0,1 C-6.76353751e-17,0.44771525 0.44771525,1.01453063e-16 1,0 L13,0 C13.5522847,-1.01453063e-16 14,0.44771525 14,1 L14,8 Z M14,9 L14,10 C14,10.5522847 13.5522847,11 13,11 L1,11 C0.44771525,11 6.76353751e-17,10.5522847 0,10 L0,9 L14,9 Z" id="Combined-Shape"></path>
                        <rect id="Rectangle-11" x="6" y="10" width="2" height="3"></rect>
                        <rect id="Rectangle-14" x="3" y="13" width="8" height="1" rx="0.5"></rect>
                    </g>
                </g>
            </g>
        </g>
    </g>
</svg>