<?xml version="1.0" standalone="no"?><!DOCTYPE svg PUBLIC "-//W3C//DTD SVG 1.1//EN" "http://www.w3.org/Graphics/SVG/1.1/DTD/svg11.dtd"><svg t="1528851655217" class="icon" style="" viewBox="0 0 1024 1024" version="1.1" xmlns="http://www.w3.org/2000/svg" p-id="14978" xmlns:xlink="http://www.w3.org/1999/xlink" width="200" height="200"><defs><style type="text/css"></style></defs><path d="M555.008 904.704v-268.8c0-42.496 21.504-80.896 55.296-102.4v-4.096s128-68.096 123.904-285.696C730.112 157.696 678.912 0 512.512 0h-8.704c-170.496 0-217.6 153.6-221.696 243.2-4.096 204.8 123.904 285.696 123.904 285.696s16.896 16.896 16.896 47.104c0 8.704-12.8 21.504-21.504 29.696-72.704 55.296-324.096 115.2-341.504 234.496-12.8 51.2-89.6 132.096 162.304 166.4 68.096 8.704 162.304 12.8 290.304 12.8 51.2 0 93.696 0 132.096-4.096-21.504-12.8-38.4-25.6-42.496-29.696-21.504-8.704-47.104-38.4-47.104-80.896z" fill="" p-id="14979"></path><path d="M939.008 597.504h-256c-21.504 0-42.496 16.896-42.496 38.4v268.8c0 8.704 8.704 16.896 8.704 16.896l144.896 98.304c8.704 4.096 12.8 4.096 16.896 4.096s8.704 0 16.896-8.704L972.8 916.992s8.704-4.096 8.704-12.8v-268.8c0-20.992-16.896-37.888-42.496-37.888z m-4.096 148.992c-16.896 21.504-47.104 51.2-47.104 51.2s4.096 34.304 8.704 59.904c0 8.704-8.704 16.896-16.896 16.896h-8.704c-21.504-8.704-55.296-25.6-59.904-29.696-8.704 4.096-38.4 16.896-64 29.696h-8.704c-8.704 0-16.896-8.704-16.896-16.896 4.096-25.6 8.704-59.904 8.704-59.904s-29.696-34.304-47.104-51.2c-4.096-8.704-4.096-16.896 8.704-16.896 25.6-4.096 64-12.8 64-12.8s21.504-34.304 34.304-55.296C806.912 640 806.912 640 811.52 640s4.096 0 16.896 16.896c12.8 21.504 34.304 55.296 34.304 55.296s38.4 8.704 64 12.8c12.288 4.608 16.384 17.408 8.192 21.504z" fill="" p-id="14980"></path></svg>