<?xml version="1.0" standalone="no"?><!DOCTYPE svg PUBLIC "-//W3C//DTD SVG 1.1//EN" "http://www.w3.org/Graphics/SVG/1.1/DTD/svg11.dtd"><svg t="1528853857846" class="icon" style="" viewBox="0 0 1024 1024" version="1.1" xmlns="http://www.w3.org/2000/svg" p-id="31768" xmlns:xlink="http://www.w3.org/1999/xlink" width="200" height="200"><defs><style type="text/css"></style></defs><path d="M644.5 401.6h221c24.3 0 44 20.2 44 44.3v397.4h44.2v88.4H70.3v-88.4h44.2v-707c0.2-24.3 20-43.8 44.3-43.8h441.4c24.4 0 44.3 19.6 44.3 43.9v265.2z m0 88.3v353.3h176.7V489.9H644.5zM247 224.9v88.4h88.4v-88.4H247z m0 220.9v88.3h88.4v-88.4l-88.4 0.1z m0 220.8V755h88.4v-88.4H247z m176.6-441.7v88.4H512v-88.4h-88.4z m0 220.9v88.3H512v-88.4l-88.4 0.1z m0 220.8V755H512v-88.4h-88.4z" fill="" p-id="31769"></path></svg>