<?xml version="1.0" standalone="no"?><!DOCTYPE svg PUBLIC "-//W3C//DTD SVG 1.1//EN" "http://www.w3.org/Graphics/SVG/1.1/DTD/svg11.dtd"><svg t="1527751012563" class="icon" style="" viewBox="0 0 1024 1024" version="1.1" xmlns="http://www.w3.org/2000/svg" p-id="6909" xmlns:xlink="http://www.w3.org/1999/xlink" width="200" height="200"><defs><style type="text/css"></style></defs><path d="M896 0H128C64 0 0 64 0 128v540.16C0 732.16 64 793.6 128 793.6h256l128 222.72 128-222.72h256c64 0 102.4-61.44 102.4-122.88V128c0-64-38.4-128-102.4-128z m51.2 670.72c0 35.84-15.36 71.68-51.2 71.68H609.28L512 913.92 414.72 742.4H128c-35.84 0-76.8-38.4-76.8-71.68V128c0-35.84 40.96-76.8 76.8-76.8h768c35.84 0 51.2 40.96 51.2 76.8v542.72zM512 348.16c-30.72 0-58.88 25.6-58.88 58.88 0 30.72 25.6 58.88 58.88 58.88s58.88-25.6 58.88-58.88c0-33.28-28.16-58.88-58.88-58.88z m-253.44 0c-30.72 0-58.88 25.6-58.88 58.88 0 30.72 25.6 58.88 58.88 58.88s58.88-25.6 58.88-58.88c0-33.28-28.16-58.88-58.88-58.88z m506.88 0c-30.72 0-58.88 25.6-58.88 58.88 0 30.72 25.6 58.88 58.88 58.88 30.72 0 58.88-25.6 58.88-58.88 0-33.28-25.6-58.88-58.88-58.88z" p-id="6910"></path></svg>