<?xml version="1.0" standalone="no"?><!DOCTYPE svg PUBLIC "-//W3C//DTD SVG 1.1//EN" "http://www.w3.org/Graphics/SVG/1.1/DTD/svg11.dtd"><svg t="1527763146431" class="icon" style="" viewBox="0 0 1024 1024" version="1.1" xmlns="http://www.w3.org/2000/svg" p-id="7607" xmlns:xlink="http://www.w3.org/1999/xlink" width="200" height="200"><defs><style type="text/css"></style></defs><path d="M728.501916 181.857884 666.120147 70.096475 383.096165 71.248717 297.303196 180.741457 69.097728 180.741457 69.097728 214.164684 334.185198 217.622436 412.053684 105.825211 636.045177 105.825211 698.283684 217.659275 954.257589 215.31795 954.257589 181.317579Z" p-id="7608"></path><path d="M813.646108 331.730287l0 73.762981 0 444.691011c0 37.59934-30.589692 68.190055-68.192102 68.190055L291.732317 918.374334c-37.60241 0-68.192102-30.589692-68.192102-68.190055L223.540216 405.493268l0-73.762981L223.540216 294.848285l-36.882002 0 0 555.335994c0 58.030671 47.043433 105.071034 105.07308 105.071034l453.722712 0c58.030671 0 105.07308-47.040363 105.07308-105.071034L850.527087 294.848285l-36.882002 0L813.645085 331.730287z" p-id="7609"></path><path d="M371.066177 294.848285l36.882002 0 0 516.342912-36.882002 0 0-516.342912Z" p-id="7610"></path><path d="M518.593162 294.848285l36.882002 0 0 516.342912-36.882002 0 0-516.342912Z" p-id="7611"></path><path d="M666.120147 294.848285l36.882002 0 0 516.342912-36.882002 0 0-516.342912Z" p-id="7612"></path></svg>