<?xml version="1.0" standalone="no"?><!DOCTYPE svg PUBLIC "-//W3C//DTD SVG 1.1//EN" "http://www.w3.org/Graphics/SVG/1.1/DTD/svg11.dtd"><svg t="1531304527166" class="icon" style="" viewBox="0 0 1024 1024" version="1.1" xmlns="http://www.w3.org/2000/svg" p-id="3092" xmlns:xlink="http://www.w3.org/1999/xlink" width="200" height="200"><defs><style type="text/css"></style></defs><path d="M511.460206 64.308655c-246.986207 0-447.184809 200.252837-447.184809 447.239044 0 246.986207 200.198601 447.184809 447.184809 447.184809 247.012813 0 447.184809-200.198601 447.184809-447.184809C958.645015 264.561491 758.473019 64.308655 511.460206 64.308655zM118.460484 511.547699c0-217.067804 175.986153-393.026328 392.999722-393.026328 99.124602 0 189.68106 36.70804 258.82586 97.266277L223.854882 762.139014c-2.956332 2.978844-5.084808 6.467295-6.386454 10.178827C155.873582 702.936657 118.460484 611.605555 118.460484 511.547699zM511.460206 904.520815c-99.340519 0-190.079126-36.875862-259.280208-97.67867 3.659343-1.301645 7.095605-3.40761 10.027377-6.326079l546.325783-546.298154c59.776432 68.947302 95.953376 158.912289 95.953376 257.328763C904.487557 728.561267 728.501404 904.520815 511.460206 904.520815z" p-id="3093"></path></svg>