<?xml version="1.0" standalone="no"?><!DOCTYPE svg PUBLIC "-//W3C//DTD SVG 1.1//EN" "http://www.w3.org/Graphics/SVG/1.1/DTD/svg11.dtd"><svg t="1531304054239" class="icon" style="" viewBox="0 0 1024 1024" version="1.1" xmlns="http://www.w3.org/2000/svg" p-id="2540" xmlns:xlink="http://www.w3.org/1999/xlink" width="200" height="200"><defs><style type="text/css"></style></defs><path d="M688.64 494.933333c-20.48-11.946667-255.146667-147.626667-267.093333-154.453333-14.506667-8.533333-30.72 5.12-30.72 19.626667v311.466666c0 16.213333 17.92 25.6 30.72 18.773334 17.066667-9.386667 252.586667-145.92 267.093333-154.453334 12.8-6.826667 12.8-33.28 0-40.96z" p-id="2541"></path><path d="M512 64C264.533333 64 64 264.533333 64 512S264.533333 960 512 960 960 759.466667 960 512 759.466667 64 512 64zM913.066667 512c0 221.013333-179.2 401.066667-401.066667 401.066667S110.933333 733.866667 110.933333 512c0-221.013333 179.2-401.066667 401.066667-401.066667 221.013333 0 401.066667 180.053333 401.066667 401.066667z" p-id="2542"></path></svg>