<?xml version="1.0" standalone="no"?><!DOCTYPE svg PUBLIC "-//W3C//DTD SVG 1.1//EN" "http://www.w3.org/Graphics/SVG/1.1/DTD/svg11.dtd"><svg class="icon" width="200px" height="200.00px" viewBox="0 0 1024 1024" version="1.1" xmlns="http://www.w3.org/2000/svg"><path fill="" d="M512 701c-104.2 0-189-84.8-189-189s84.8-189 189-189 189 84.8 189 189-84.8 189-189 189z m0-336c-81.1 0-147 66-147 147s65.9 147 147 147 147-66 147-147-65.9-147-147-147zM512 953c-34.7 0-63-28.3-63-63v-48.3c-44.9-8.6-87.7-26.3-125.6-52l-34.1 34.1c-23.7 23.7-65.3 23.7-89.1 0-24.6-24.6-24.6-64.5 0-89.1l34.1-34.1c-25.7-37.9-43.5-80.7-52-125.6H134c-34.7 0-63-28.3-63-63s28.3-63 63-63h48.3c8.6-44.9 26.3-87.7 52-125.6l-34.1-34.1c-24.6-24.6-24.6-64.5 0-89.1 23.7-23.7 65.3-23.8 89.1 0l34.1 34.1c37.9-25.7 80.7-43.5 125.6-52V134c0-34.7 28.3-63 63-63s63 28.3 63 63v48.3c44.9 8.6 87.7 26.3 125.6 52l34.1-34.1c23.7-23.7 65.3-23.8 89.1 0 24.6 24.6 24.6 64.5 0 89.1l-34.1 34.1c25.7 37.9 43.5 80.7 52 125.6H890c34.7 0 63 28.3 63 63s-28.3 63-63 63h-48.3c-8.6 44.9-26.3 87.7-52 125.6l34.1 34.1c24.6 24.6 24.6 64.5 0 89.1-23.8 23.7-65.4 23.7-89.1 0l-34.1-34.1c-37.9 25.7-80.7 43.5-125.6 52V890c0 34.7-28.3 63-63 63zM321.2 741.2c4.5 0 9 1.4 12.7 4.3 40.5 30.9 88.5 50.8 138.8 57.5 10.5 1.4 18.2 10.3 18.2 20.8V890c0 11.6 9.4 21 21 21s21-9.4 21-21v-66.1c0-10.5 7.8-19.4 18.2-20.8 50.4-6.7 98.4-26.6 138.8-57.5 8.4-6.4 20.2-5.6 27.6 1.8l46.8 46.8c7.8 7.8 21.8 7.8 29.7 0 8.2-8.2 8.2-21.5 0-29.7l-46.8-46.8c-7.4-7.4-8.2-19.2-1.8-27.6 30.9-40.5 50.8-88.5 57.5-138.8 1.4-10.4 10.3-18.2 20.8-18.2H890c11.6 0 21-9.4 21-21s-9.4-21-21-21h-66.1c-10.5 0-19.4-7.8-20.8-18.2-6.7-50.4-26.6-98.4-57.5-138.9-6.4-8.3-5.6-20.1 1.8-27.6l46.8-46.8c8.2-8.2 8.2-21.5 0-29.7-7.8-7.9-21.9-7.8-29.7 0l-46.8 46.8c-7.4 7.4-19.2 8.2-27.6 1.8-40.5-30.9-88.5-50.8-138.8-57.5-10.5-1.4-18.2-10.3-18.2-20.8V134c0-11.6-9.4-21-21-21s-21 9.4-21 21v66.1c0 10.5-7.8 19.4-18.2 20.8-50.4 6.7-98.4 26.6-138.8 57.5-8.4 6.4-20.2 5.6-27.6-1.8l-46.8-46.8c-7.9-7.9-21.9-7.8-29.7 0-8.2 8.2-8.2 21.5 0 29.7l46.8 46.8c7.4 7.4 8.2 19.2 1.8 27.6-30.9 40.5-50.8 88.5-57.5 138.9-1.4 10.4-10.3 18.2-20.8 18.2H134c-11.6 0-21 9.4-21 21s9.4 21 21 21h66.1c10.5 0 19.4 7.8 20.8 18.2 6.7 50.4 26.6 98.4 57.5 138.8 6.4 8.4 5.6 20.2-1.8 27.6l-46.8 46.8c-8.2 8.2-8.2 21.5 0 29.7 7.8 7.8 21.8 7.8 29.7 0l46.8-46.8c4.1-4 9.5-6.1 14.9-6.1z" /></svg>