<?xml version="1.0" standalone="no"?><!DOCTYPE svg PUBLIC "-//W3C//DTD SVG 1.1//EN" "http://www.w3.org/Graphics/SVG/1.1/DTD/svg11.dtd"><svg t="1531126475649" class="icon" style="" viewBox="0 0 1024 1024" version="1.1" xmlns="http://www.w3.org/2000/svg" p-id="1964" xmlns:xlink="http://www.w3.org/1999/xlink" width="200" height="200"><defs><style type="text/css"></style></defs><path d="M939.059 533.565l-414.399-414.405c-8.096-8.096-21.2-8.096-29.296 0l-310.608 310.625c-0.125 0.116-0.247 0.239-0.369 0.369l-103.415 103.426c-8.096 8.1-8.096 21.2 0 29.296 8.096 8.1 21.199 8.1 29.296 0l68.227-68.23v343.659c0 45.697 37.167 82.883 82.883 82.883h145.038c11.453 0 20.717-9.267 20.717-20.718v-186.481h186.481c11.453 0 20.718-9.264 20.718-20.717s-9.267-20.718-20.718-20.718h-207.198c-11.454 0-20.718 9.267-20.718 20.718v186.475h-124.322c-22.841 0-41.444-18.619-41.444-41.444v-385.103l290.081-290.085 399.743 399.748c4.046 4.046 9.355 6.070 14.643 6.070 5.303 0 10.604-2.020 14.646-6.070 8.096-8.093 8.096-21.197 0-29.296zM820.806 589.66c-11.453 0-20.717 9.264-20.717 20.717v227.914c0 22.816-18.591 41.444-41.445 41.444h-145.037c-11.453 0-20.718 9.267-20.718 20.718s9.267 20.718 20.718 20.718h145.037c45.705 0 82.883-37.193 82.883-82.883v-227.923c0.001-11.453-9.267-20.715-20.717-20.715z" p-id="1965"></path></svg>