<?xml version="1.0" standalone="no"?><!DOCTYPE svg PUBLIC "-//W3C//DTD SVG 1.1//EN" "http://www.w3.org/Graphics/SVG/1.1/DTD/svg11.dtd"><svg t="1529652152228" class="icon" style="" viewBox="0 0 1024 1024" version="1.1" xmlns="http://www.w3.org/2000/svg" p-id="1040" xmlns:xlink="http://www.w3.org/1999/xlink" width="200" height="200"><defs><style type="text/css"></style></defs><path d="M877.216 491.808" p-id="1041"></path><path d="M769.472 960 192.224 960C139.168 960 96 916.832 96 863.776L96 222.368c0-53.056 43.168-96.224 96.224-96.224l448.992 0c17.728 0 32.064 14.368 32.064 32.064 0 17.696-14.336 32.064-32.064 32.064L192.224 190.272c-17.664 0-32.064 14.4-32.064 32.064l0 641.408c0 17.696 14.4 32.064 32.064 32.064l577.28 0c17.696 0 32.064-14.368 32.064-32.064L801.568 350.656c0-17.696 14.336-32.064 32.064-32.064 17.728 0 32.064 14.368 32.064 32.064l0 513.12C865.696 916.832 822.528 960 769.472 960L769.472 960zM581.056 446.88c-8.224 0-16.416-3.136-22.656-9.408-12.544-12.544-12.544-32.8 0-45.344l318.72-318.72c12.544-12.544 32.8-12.544 45.344 0 12.544 12.544 12.544 32.8 0 45.344l-318.72 318.72C597.504 443.744 589.28 446.88 581.056 446.88L581.056 446.88zM448.768 446.88 256.352 446.88c-17.696 0-32.064-14.368-32.064-32.064 0-17.696 14.368-32.064 32.064-32.064l192.416 0c17.696 0 32.064 14.368 32.064 32.064C480.832 432.512 466.464 446.88 448.768 446.88L448.768 446.88zM641.216 639.296 256.352 639.296c-17.696 0-32.064-14.336-32.064-32.064 0-17.728 14.368-32.064 32.064-32.064l384.832 0c17.728 0 32.064 14.336 32.064 32.064C673.28 624.96 658.944 639.296 641.216 639.296L641.216 639.296zM641.216 639.296" p-id="1042" fill="#ffffff"></path></svg>