<?xml version="1.0" standalone="no"?><!DOCTYPE svg PUBLIC "-//W3C//DTD SVG 1.1//EN" "http://www.w3.org/Graphics/SVG/1.1/DTD/svg11.dtd"><svg t="1530180182561" class="icon" style="" viewBox="0 0 1024 1024" version="1.1" xmlns="http://www.w3.org/2000/svg" p-id="29882" data-spm-anchor-id="a313x.7781069.0.i6" xmlns:xlink="http://www.w3.org/1999/xlink" width="200" height="200"><defs><style type="text/css"></style></defs><path d="M337.558338 937.946482H185.111316a100.51182 100.51182 0 0 1-107.597617-91.25523V147.450102a100.51182 100.51182 0 0 1 107.597617-91.25523H607.432983v254.597176c0.204792 15.564177 12.779009 28.097436 28.343186 28.26127l203.849766 1.228751v106.49174a28.670853 28.670853 0 0 0 57.014039 0V311.979841a11.099716 11.099716 0 0 0 0-2.334627 1.228751 1.228751 0 0 0 0-0.778209c0-0.614375 0-1.228751-0.286708-1.843126s0-0.614375 0-0.942042-0.327667-1.064917-0.4915-1.679293a10.23959 10.23959 0 0 0-0.901084-2.621335c0-0.327667-0.327667-0.778209-0.491501-1.105876s-0.450542-0.901084-0.614375-1.392584-0.4915-0.901084-0.778209-1.228751l-0.614375-1.064918a13.311468 13.311468 0 0 0-1.26971-1.720251 0.778209 0.778209 0 0 1-0.286708-0.450542L658.876685 10.731091a32.889564 32.889564 0 0 0-6.225671-5.693213h-0.327667a20.233431 20.233431 0 0 0-2.00696-1.22875h-0.327667c-0.327667 0-1.392584-0.778209-2.170793-1.064918a24.4931 24.4931 0 0 0-6.840046-1.843126H185.111316A156.911484 156.911484 0 0 0 20.49966 147.450102v699.568817a156.952442 156.952442 0 0 0 164.611656 147.450102h152.447022a28.26127 28.26127 0 1 0 0-56.604456v0.081917z m326.724851-830.348866l143.722891 176.120955-143.722891-0.901084V107.597616z m315.829926 440.056638a97.194192 97.194192 0 0 0-134.712051-9.420423l-395.575857 335.039398a27.974561 27.974561 0 0 0-9.625215 16.956762l-16.383345 100.839486a28.302228 28.302228 0 0 0 28.056478 32.725731h0.450542l104.525739-1.679293a28.916603 28.916603 0 0 0 18.062638-6.799088l395.534898-335.039398a92.770689 92.770689 0 0 0 9.666173-132.459342v-0.163833z m-33.667773 64.222711a36.4939 36.4939 0 0 1-13.065717 25.598976l-387.75281 328.404144-60.290708 0.942042 9.379464-57.341706 387.588977-328.240311a39.606736 39.606736 0 0 1 54.966121 3.850086 35.633775 35.633775 0 0 1 9.174673 26.950602v-0.163833zM222.956842 340.445902h279.540818a28.26127 28.26127 0 0 0 0-56.522539H222.956842a28.343186 28.343186 0 0 0 0 56.686373v-0.163834z m0 252.590217a28.26127 28.26127 0 0 0 0 56.522539h279.540818a28.26127 28.26127 0 0 0 0-56.522539H222.956842z m486.50342-126.315588a28.425103 28.425103 0 0 0-28.588937-28.261269H222.956842a28.26127 28.26127 0 0 0 0 56.522539h457.9964a28.670853 28.670853 0 0 0 28.50702-28.056478v-0.204792z" p-id="29883" data-spm-anchor-id="a313x.7781069.0.i5" class="selected"></path></svg>