<?xml version="1.0" standalone="no"?><!DOCTYPE svg PUBLIC "-//W3C//DTD SVG 1.1//EN" "http://www.w3.org/Graphics/SVG/1.1/DTD/svg11.dtd"><svg t="1529904763514" class="icon" style="" viewBox="0 0 1024 1024" version="1.1" xmlns="http://www.w3.org/2000/svg" p-id="11983" xmlns:xlink="http://www.w3.org/1999/xlink" width="200" height="200"><defs><style type="text/css"></style></defs><path d="M442.91584 270.208h138.1632v34.53952H442.91584z" p-id="11984" fill="#1296db"></path><path d="M615.62368 304.74752a34.56512 34.56512 0 0 1-34.54464 34.54464H442.91584a34.56 34.56 0 0 1-34.53952-34.54464v-34.53952h-103.6288v483.57888h414.49472V270.208h-103.61856v34.53952z m-120.89856 345.4208H391.10656a17.24928 17.24928 0 0 1-17.27488-17.27488 17.24928 17.24928 0 0 1 17.27488-17.26976h103.62368a17.24928 17.24928 0 0 1 17.27488 17.26976 17.2544 17.2544 0 0 1-17.28 17.27488z m138.16832-103.62368H391.10656c-9.56416 0-17.27488-7.71584-17.27488-17.27488S381.5424 512 391.10656 512h241.792c9.55904 0 17.27488 7.71072 17.27488 17.26976s-7.72096 17.27488-17.28 17.27488z m17.27488-120.89856a17.24928 17.24928 0 0 1-17.27488 17.26976H391.10656c-9.56416 0-17.27488-7.71072-17.27488-17.26976s7.71072-17.26976 17.27488-17.26976h241.792a17.24416 17.24416 0 0 1 17.26976 17.26976z" p-id="11985" fill="#1296db"></path><path d="M512.6144 23.04c-270.75072 0-490.24 219.48928-490.24 490.24S241.86368 1003.52 512.6144 1003.52c270.75584 0 490.24-219.48928 490.24-490.24S783.37024 23.04 512.6144 23.04z m241.1776 730.752a34.56 34.56 0 0 1-34.54464 34.54464H304.74752a34.56 34.56 0 0 1-34.53952-34.54464v-483.584a34.56 34.56 0 0 1 34.53952-34.54464h414.49472a34.56 34.56 0 0 1 34.54464 34.54464v483.584z" p-id="11986" fill="#1296db"></path></svg>