<?xml version="1.0" standalone="no"?><!DOCTYPE svg PUBLIC "-//W3C//DTD SVG 1.1//EN" "http://www.w3.org/Graphics/SVG/1.1/DTD/svg11.dtd"><svg t="1530179358013" class="icon" style="" viewBox="0 0 1024 1024" version="1.1" xmlns="http://www.w3.org/2000/svg" p-id="2457" xmlns:xlink="http://www.w3.org/1999/xlink" width="200" height="200"><defs><style type="text/css"></style></defs><path d="M512 102.4c130.134016 0 238.45888 37.142528 313.263104 107.41248 31.52896 29.617152 55.960576 64.027648 72.619008 102.276096 15.516672 35.628032 23.717888 74.175488 23.717888 111.474688 0 19.013632-2.138112 48.872448-12.324864 83.142656-10.359808 34.849792-26.80832 66.581504-48.888832 94.312448-27.367424 34.369536-63.980544 63.161344-108.822528 85.57568-56.716288 28.34944-127.309824 47.0016-209.820672 55.436288-17.445888 1.783808-34.14016 8.016896-48.485376 18.103296-50.296832 35.365888-96.211968 66.847744-134.892544 92.988416-5.397504-23.33696-11.656192-50.246656-18.909184-81.25952-7.739392-33.092608-31.393792-60.189696-63.138816-72.327168-33.171456-12.683264-61.519872-28.161024-84.256768-46.0032-20.686848-16.233472-37.091328-34.486272-50.1504-55.800832-26.586112-43.395072-39.508992-100.365312-39.508992-174.168064 0-34.893824 7.391232-71.616512 21.374976-106.19904 15.577088-38.524928 38.546432-73.153536 68.27008-102.925312 33.58208-33.637376 75.119616-60.182528 123.456512-78.900224C372.287488 113.549312 438.398976 102.4 512 102.4M512 0c-363.79136 0-512 237.715456-512 423.56224 0 178.166784 65.666048 305.058816 239.746048 371.618816 45.160448 193.094656 51.303424 225.288192 51.303424 225.288192s110.488576-70.664192 261.106688-176.570368c406.437888-41.549824 471.842816-295.926784 471.842816-420.33664C1024 219.28448 851.661824 0 512 0L512 0z" p-id="2458"></path></svg>