<?xml version="1.0" standalone="no"?><!DOCTYPE svg PUBLIC "-//W3C//DTD SVG 1.1//EN" "http://www.w3.org/Graphics/SVG/1.1/DTD/svg11.dtd"><svg t="1530180560480" class="icon" style="" viewBox="0 0 1024 1024" version="1.1" xmlns="http://www.w3.org/2000/svg" p-id="46527" xmlns:xlink="http://www.w3.org/1999/xlink" width="200" height="200"><defs><style type="text/css"></style></defs><path d="M640 748.8c-12.8-12.8-32-12.8-44.8 0l-44.8 51.2v-256c0-19.2-12.8-32-32-32H512c-19.2 0-32 12.8-32 32v262.4l-51.2-51.2c-12.8-12.8-32-12.8-44.8 0l-6.4 6.4c-12.8 12.8-12.8 32 0 44.8l115.2 115.2c6.4 6.4 12.8 6.4 25.6 6.4 6.4 0 19.2 0 25.6-6.4l115.2-115.2c12.8-12.8 12.8-32 0-44.8l-19.2-12.8z m307.2-288c-25.6-25.6-51.2-51.2-83.2-57.6-6.4-83.2-38.4-153.6-96-204.8-57.6-57.6-140.8-96-230.4-96-64 0-128 19.2-179.2 57.6-44.8 32-83.2 76.8-108.8 128-57.6 6.4-108.8 38.4-140.8 76.8C64 409.6 38.4 473.6 38.4 537.6c0 70.4 25.6 134.4 70.4 179.2 44.8 44.8 108.8 76.8 172.8 76.8v-76.8c-44.8 0-89.6-19.2-121.6-51.2s-51.2-76.8-51.2-128c0-44.8 19.2-89.6 44.8-121.6 32-32 70.4-51.2 115.2-57.6 12.8 0 25.6-6.4 32-25.6 19.2-44.8 51.2-89.6 96-115.2 38.4-25.6 89.6-44.8 140.8-44.8 70.4 0 134.4 32 179.2 76.8 44.8 44.8 76.8 108.8 76.8 185.6 0 19.2 12.8 32 32 38.4 25.6 6.4 51.2 19.2 70.4 38.4 19.2 19.2 25.6 51.2 25.6 76.8 0 32-12.8 64-32 83.2-19.2 19.2-51.2 32-83.2 32h-12.8v76.8h12.8c51.2 0 102.4-25.6 134.4-57.6 32-38.4 57.6-83.2 57.6-140.8-6.4-44.8-25.6-83.2-51.2-121.6z" p-id="46528"></path></svg>