<?xml version="1.0" standalone="no"?><!DOCTYPE svg PUBLIC "-//W3C//DTD SVG 1.1//EN" "http://www.w3.org/Graphics/SVG/1.1/DTD/svg11.dtd"><svg t="1530179619249" class="icon" style="" viewBox="0 0 1024 1024" version="1.1" xmlns="http://www.w3.org/2000/svg" p-id="5864" xmlns:xlink="http://www.w3.org/1999/xlink" width="200" height="200"><defs><style type="text/css"></style></defs><path d="M192 0c-17.664 0-32 14.336-32 32l0 960c0 17.664 14.336 32 32 32s32-14.336 32-32L224 512l608 0c11.088 0 21.392-5.744 27.216-15.184 5.824-9.424 6.352-21.216 1.408-31.136L771.776 288l88.848-177.68c4.96-9.92 4.416-21.696-1.408-31.136C853.392 69.744 843.088 64 832 64L224 64 224 32C224 14.336 209.664 0 192 0zM780.224 128l-72.848 145.68c-4.496 9.008-4.496 19.616 0 28.624L780.224 448 224 448 224 128 780.224 128z" p-id="5865"></path></svg>