<?xml version="1.0" standalone="no"?><!DOCTYPE svg PUBLIC "-//W3C//DTD SVG 1.1//EN" "http://www.w3.org/Graphics/SVG/1.1/DTD/svg11.dtd"><svg t="1530180409762" class="icon" style="" viewBox="0 0 1408 1024" version="1.1" xmlns="http://www.w3.org/2000/svg" p-id="36944" xmlns:xlink="http://www.w3.org/1999/xlink" width="275" height="200"><defs><style type="text/css"></style></defs><path d="M1407.087738 1024h-85.278045a426.177029 426.177029 0 0 0-392.620118-424.684663 600.442713 600.442713 0 0 0-103.015878-81.99484c3.368483-4.81821 7.078078-9.337946 10.190727-14.326711a213.195112 213.195112 0 1 0 0-407.756971A385.371484 385.371484 0 0 0 779.057578 24.200204a298.174683 298.174683 0 0 1 288.154513 518.319955A511.412434 511.412434 0 0 1 1407.087738 1024zM683.503529 542.520159A511.412434 511.412434 0 0 1 1023.336537 1024h-85.278045a426.390224 426.390224 0 0 0-852.780447 0H0a511.412434 511.412434 0 0 1 339.833008-481.479841 298.473157 298.473157 0 1 1 343.670521 0zM511.668268 85.941508a213.195112 213.195112 0 1 0 213.195112 213.195112 213.195112 213.195112 0 0 0-213.195112-213.195112z" p-id="36945"></path></svg>