<?xml version="1.0" standalone="no"?><!DOCTYPE svg PUBLIC "-//W3C//DTD SVG 1.1//EN" "http://www.w3.org/Graphics/SVG/1.1/DTD/svg11.dtd"><svg t="1529583412435" class="icon" style="" viewBox="0 0 1024 1024" version="1.1" xmlns="http://www.w3.org/2000/svg" p-id="4020" xmlns:xlink="http://www.w3.org/1999/xlink" width="200" height="200"><defs><style type="text/css"></style></defs><path d="M510.593977 64.024176c-246.615771 0-446.537056 171.425278-446.537056 382.898667 0 174.401052 136.105864 321.292564 322.107115 367.529631l124.429941 142.66321L635.022894 814.452473c185.999205-46.236044 322.106092-193.128579 322.106092-367.529631C957.128987 235.449453 757.207701 64.024176 510.593977 64.024176zM608.106872 751.474117l-61.430094 76.786851-36.0828 45.106314-97.513918-121.892141c-168.628582-35.636638-293.412586-161.005974-293.412586-310.658366 0-177.35636 175.022199-321.134974 390.926504-321.134974s390.927527 143.778614 390.927527 321.134974C901.521504 590.468143 776.735453 715.837478 608.106872 751.474117z" p-id="4021" fill="#ffffff"></path></svg>