<?xml version="1.0" standalone="no"?><!DOCTYPE svg PUBLIC "-//W3C//DTD SVG 1.1//EN" "http://www.w3.org/Graphics/SVG/1.1/DTD/svg11.dtd"><svg t="1529458572617" class="icon" style="" viewBox="0 0 1024 1024" version="1.1" xmlns="http://www.w3.org/2000/svg" p-id="2780" xmlns:xlink="http://www.w3.org/1999/xlink" width="200" height="200"><defs><style type="text/css"></style></defs><path d="M839.747052 505.093009C831.148271 510.897963 820.252342 512.015494 810.722285 508.135177 774.309395 493.234762 735.226847 485.97081 691.239579 485.97081 634.618001 485.97081 578.058508 497.549674 518.208506 509.811474 457.954952 522.135359 395.65259 534.862797 332.791463 534.862797 297.092552 534.89384 264.09434 530.454758 232.617213 522.104317L232.617213 992.771185C232.617213 1010.030833 218.710159 1023.999973 201.574681 1023.999973 184.439203 1023.999973 170.532149 1010.030833 170.532149 992.771185L170.532149 479.203538 170.532149 55.690275C170.532149 50.785555 171.866978 46.284388 173.884742 42.155731 174.474551 40.91403 175.374784 39.982754 176.119805 38.83418 177.951314 36.040352 180.062206 33.587992 182.669779 31.539185 183.29063 31.042504 183.570012 30.235399 184.252948 29.769761 184.904841 29.304123 185.74299 29.366208 186.456968 28.962655 189.219753 27.379486 192.168794 26.386125 195.366175 25.703189 196.887259 25.392764 198.25313 24.896083 199.774214 24.802956 200.395065 24.771913 200.922788 24.430445 201.574681 24.430445 205.268742 24.430445 208.714463 25.361721 212.036014 26.57238 212.439567 26.727592 212.874163 26.57238 213.277715 26.758635 249.690605 41.65905 288.773153 48.89196 332.791463 48.89196 389.381999 48.89196 445.941492 37.313096 505.822536 25.082338 566.045048 12.727411 628.34741-2.7e-05 691.208537-2.7e-05 743.391033-2.7e-05 790.141086 8.722924 834.128354 26.758635 845.800346 31.539185 853.467851 42.993879 853.467851 55.690275L853.467851 479.203538C853.467851 489.602786 848.314791 499.319098 839.747052 505.093009ZM791.382787 77.513175C760.495468 67.393309 727.528299 62.457547 691.208537 62.457547 634.618001 62.457547 578.058508 74.036411 518.177464 86.298211 457.923909 98.622096 395.621548 111.380577 332.791463 111.380577 297.154637 111.380577 264.032255 107.282963 232.617213 98.963564L232.617213 457.349595C263.504532 467.469461 296.471701 472.405223 332.791463 472.405223 389.413042 472.405223 445.972535 460.826359 505.822536 448.564559 566.076091 436.240673 628.378452 423.513235 691.239579 423.513235 726.876406 423.513235 759.967745 427.579807 791.382787 435.899206L791.382787 77.513175Z" p-id="2781"></path></svg>