<?xml version="1.0" standalone="no"?><!DOCTYPE svg PUBLIC "-//W3C//DTD SVG 1.1//EN" "http://www.w3.org/Graphics/SVG/1.1/DTD/svg11.dtd"><svg t="1528788932547" class="icon" style="" viewBox="0 0 1025 1024" version="1.1" xmlns="http://www.w3.org/2000/svg" p-id="11092" data-spm-anchor-id="a313x.7781069.0.i1" xmlns:xlink="http://www.w3.org/1999/xlink" width="200.1953125" height="200"><defs><style type="text/css"></style></defs><path d="M540.89728 540.90752c81.0496-48.08704 136.0896-140.8 136.0896-247.08096 0-155.55584-117.85216-282.10176-262.7072-282.10176S151.56224 138.27072 151.56224 293.82656c0 106.09664 54.84544 198.656 135.66976 246.82496-91.53536 30.72-152.85248 91.4432-191.22176 145.01888C35.8912 769.61792 0 880.2304 0 981.5552c0 16.96768 13.75232 30.72 30.72 30.72s30.72-13.75232 30.72-30.72c0-68.68992 22.20032-173.09696 84.5312-260.11648 45.57824-63.6416 129.11616-139.50976 268.29824-139.50976 241.98144 0 354.7136 238.46912 354.7136 399.62624 0 16.96768 13.75232 30.72 30.72 30.72s30.72-13.75232 30.72-30.72C830.42304 825.88672 737.64864 607.82592 540.89728 540.90752zM213.00224 293.82656c0-121.67168 90.28608-220.66176 201.2672-220.66176s201.2672 98.99008 201.2672 220.66176-90.28608 220.66176-201.2672 220.66176S213.00224 415.49824 213.00224 293.82656zM965.66272 666.51136c-44.76928-77.1584-117.89312-121.87648-170.1888-145.55136 52.51072-39.65952 120.92416-113.28512 110.71488-223.232C890.75712 131.4816 740.88448 85.84192 734.50496 83.97824c-16.19968-4.68992-33.16736 4.54656-37.9904 20.76672-4.82304 16.20992 4.4544 33.28 20.64384 38.17472 4.74112 1.4336 116.34688 36.51584 127.85664 160.48128 11.88864 128.18432-126.1568 194.12992-131.98336 196.85376-11.84768 5.45792-18.96448 17.8176-17.7152 30.80192 1.2288 12.99456 10.52672 23.78752 23.20384 26.92096 1.32096 0.32768 132.8128 33.91488 194.00704 139.37664 51.4048 88.56576 50.05312 186.25536 50.03264 187.17696-0.4096 16.96768 13.01504 31.04768 29.97248 31.44704 0.24576 0 0.50176 0.01024 0.74752 0.01024 16.62976 0 30.30016-13.27104 30.69952-29.98272C1024.08192 881.33632 1026.02752 770.52928 965.66272 666.51136z" p-id="11093" data-spm-anchor-id="a313x.7781069.0.i2"></path></svg>